<svg height="816" width="1056" xmlns="http://www.w3.org/2000/svg" xmlns:xlink="http://www.w3.org/1999/xlink"><linearGradient id="a"><stop offset="0" stop-color="#8ec843"/><stop offset=".01" stop-color="#90c944"/><stop offset=".02" stop-color="#93c944"/><stop offset=".03" stop-color="#95ca45"/><stop offset=".04" stop-color="#97cb46"/><stop offset=".05" stop-color="#9acb47"/><stop offset=".06" stop-color="#9ccc47"/><stop offset=".07" stop-color="#9ecc48"/><stop offset=".08" stop-color="#a0cd49"/><stop offset=".09" stop-color="#a3ce49"/><stop offset=".1" stop-color="#a5ce4a"/><stop offset=".11" stop-color="#a7cf4b"/><stop offset=".12" stop-color="#aad04c"/><stop offset=".13" stop-color="#acd04c"/><stop offset=".14" stop-color="#aed14d"/><stop offset=".15" stop-color="#b1d14e"/><stop offset=".16" stop-color="#b3d24e"/><stop offset=".17" stop-color="#b5d34f"/><stop offset=".18" stop-color="#b8d350"/><stop offset=".19" stop-color="#bad451"/><stop offset=".2" stop-color="#bcd551"/><stop offset=".21" stop-color="#bed552"/><stop offset=".22" stop-color="#c1d653"/><stop offset=".23" stop-color="#c3d753"/><stop offset=".24" stop-color="#c5d754"/><stop offset=".25" stop-color="#c8d855"/><stop offset=".26" stop-color="#cad856"/><stop offset=".27" stop-color="#ccd956"/><stop offset=".28" stop-color="#cfda57"/><stop offset=".29" stop-color="#d1da58"/><stop offset=".3" stop-color="#d3db58"/><stop offset=".31" stop-color="#d5dc59"/><stop offset=".32" stop-color="#d8dc5a"/><stop offset=".33" stop-color="#dadd5b"/><stop offset=".34" stop-color="#dcde5b"/><stop offset=".35" stop-color="#dfde5c"/><stop offset=".36" stop-color="#e1df5d"/><stop offset=".37" stop-color="#e3df5d"/><stop offset=".38" stop-color="#e6e05e"/><stop offset=".39" stop-color="#e8e15f"/><stop offset=".4" stop-color="#eae160"/><stop offset=".41" stop-color="#ede260"/><stop offset=".42" stop-color="#efe361"/><stop offset=".43" stop-color="#f1e362"/><stop offset=".44" stop-color="#f3e462"/><stop offset=".45" stop-color="#f6e463"/><stop offset=".46" stop-color="#f8e564"/><stop offset=".47" stop-color="#fae665"/><stop offset=".48" stop-color="#fde665"/><stop offset=".49" stop-color="#ffe766"/><stop offset=".5" stop-color="#ffe466"/><stop offset=".51" stop-color="#ffe266"/><stop offset=".52" stop-color="#ffdf66"/><stop offset=".53" stop-color="#fd6"/><stop offset=".54" stop-color="#ffda66"/><stop offset=".55" stop-color="#ffd866"/><stop offset=".56" stop-color="#ffd566"/><stop offset=".57" stop-color="#ffd266"/><stop offset=".58" stop-color="#ffd066"/><stop offset=".59" stop-color="#ffcd66"/><stop offset=".6" stop-color="#ffcb66"/><stop offset=".61" stop-color="#ffc866"/><stop offset=".62" stop-color="#ffc566"/><stop offset=".63" stop-color="#ffc366"/><stop offset=".64" stop-color="#ffc066"/><stop offset=".65" stop-color="#ffbe66"/><stop offset=".66" stop-color="#fb6"/><stop offset=".67" stop-color="#ffb966"/><stop offset=".68" stop-color="#ffb666"/><stop offset=".69" stop-color="#ffb366"/><stop offset=".7" stop-color="#ffb166"/><stop offset=".71" stop-color="#ffae66"/><stop offset=".72" stop-color="#ffac66"/><stop offset=".73" stop-color="#ffa966"/><stop offset=".74" stop-color="#ffa766"/><stop offset=".75" stop-color="#ffa466"/><stop offset=".76" stop-color="#ffa166"/><stop offset=".77" stop-color="#ff9f66"/><stop offset=".78" stop-color="#ff9c66"/><stop offset=".79" stop-color="#ff9a66"/><stop offset=".8" stop-color="#ff9766"/><stop offset=".81" stop-color="#ff9466"/><stop offset=".82" stop-color="#ff9266"/><stop offset=".83" stop-color="#ff8f66"/><stop offset=".84" stop-color="#ff8d66"/><stop offset=".85" stop-color="#ff8a66"/><stop offset=".86" stop-color="#f86"/><stop offset=".87" stop-color="#ff8566"/><stop offset=".88" stop-color="#ff8266"/><stop offset=".89" stop-color="#ff8066"/><stop offset=".9" stop-color="#ff7d66"/><stop offset=".91" stop-color="#ff7b66"/><stop offset=".92" stop-color="#ff7866"/><stop offset=".93" stop-color="#ff7566"/><stop offset=".94" stop-color="#ff7366"/><stop offset=".95" stop-color="#ff7066"/><stop offset=".96" stop-color="#ff6e66"/><stop offset=".97" stop-color="#ff6b66"/><stop offset=".98" stop-color="#ff6966"/><stop offset=".99" stop-color="#f66"/></linearGradient><g font-family="sans-serif"><path d="m5 5h1046v96h-1046z" fill="#fff" stroke="#000"/><g transform="translate(5 5)"><path d="m0 0h348.666667v96h-348.666667z" fill="#fff" stroke="#000"/><text dx="0" dy="0" font-size="18pt" font-weight="bold" transform="translate(6 24)"><tspan dy="0em" x="0">Cloud Security</tspan></text></g><g transform="translate(353.666667 5)"><path d="m0 0h348.666667v96h-348.666667z" fill="#fff" stroke="#000"/><g font-size="12pt"><text dx="0" dy="0" font-weight="bold" transform="translate(6 18)">filters</text><g transform="translate(6 47.5)"><text>stages: act</text><text dy="1.1em">platforms: AWS, GCP, Azure, Azure AD, SaaS</text></g></g></g><g transform="translate(702.333333 5)"><path d="m0 0h348.666667v96h-348.666667z" fill="#fff" stroke="#000"/><text dx="0" dy="0" font-size="12pt" font-weight="bold" transform="translate(6 18)">score gradient</text><text font-size="12pt" transform="translate(6 47.5)">0</text><path d="m0 0h50v10h-50z" fill="url(#a)" stroke="#000" transform="translate(16.898438 36)"/><text font-size="12pt" transform="translate(68.898438 47.5)">100</text></g><path d="m5 101h1046" stroke="#000" stroke-width="3"/><g transform="translate(5 102)"><path d="m0 0h104.6v128.909091h-104.6z" fill="#fff" stroke="#000"/><g font-size="12pt"><text dx="0" dy="0" font-weight="bold" transform="translate(3 38.477273)"><tspan dy="0em" x="0">Initial</tspan><tspan dy="1.1em" x="0">Access</tspan></text><text dx="0" dy="0" transform="translate(3 102.431818)"><tspan dy="0em" x="0">5 items</tspan></text></g></g><g transform="translate(5 230.909091)"><path d="m0 0h104.6v64.454545h-104.6z" fill="#ffe466" stroke="#000"/><text dx="0" dy="0" font-size="10pt" transform="translate(3 4.5)"><tspan dy="0" x="0" y="16.863636">Drive-by</tspan><tspan dy="0" x="0" y="48.590909">Compromise</tspan></text></g><g transform="translate(5 295.363636)"><path d="m0 0h104.6v64.454545h-104.6z" fill="#ffa466" stroke="#000"/><text dx="0" dy="0" font-size="10pt" transform="translate(3 4.5)"><tspan dy="0" x="0" y="11.575758">Exploit</tspan><tspan dy="0" x="0" y="32.727273">Public-Facing</tspan><tspan dy="0" x="0" y="53.878788">Application</tspan></text></g><g transform="translate(5 359.818182)"><path d="m0 0h104.6v64.454545h-104.6z" fill="#ffe466" stroke="#000"/><text dx="0" dy="0" font-size="10pt" transform="translate(3 4.5)"><tspan dy="0" x="0" y="16.863636">Spearphishing</tspan><tspan dy="0" x="0" y="48.590909">Link</tspan></text></g><g transform="translate(5 424.272727)"><path d="m0 0h104.6v64.454545h-104.6z" fill="#ffa466" stroke="#000"/><text dx="0" dy="0" font-size="10pt" transform="translate(3 4.5)"><tspan dy="0" x="0" y="16.863636">Trusted</tspan><tspan dy="0" x="0" y="48.590909">Relationship</tspan></text></g><g transform="translate(5 488.727273)"><path d="m0 0h104.6v64.454545h-104.6z" fill="#ffbe66" stroke="#000"/><text dx="0" dy="0" font-size="10pt" transform="translate(3 4.5)"><tspan dy="0" x="0" y="32.727273">Valid Accounts</tspan></text></g><g transform="translate(109.6 102)"><path d="m0 0h104.6v128.909091h-104.6z" fill="#fff" stroke="#000"/><g font-size="12pt"><text dx="0" dy="0" font-weight="bold" transform="translate(3 38.477273)"><tspan dy="0em" x="0">Persistence</tspan></text><text dx="0" dy="0" transform="translate(3 102.431818)"><tspan dy="0em" x="0">5 items</tspan></text></g></g><g transform="translate(109.6 230.909091)"><path d="m0 0h104.6v64.454545h-104.6z" fill="#ffe466" stroke="#000"/><text dx="0" dy="0" font-size="10pt" transform="translate(3 4.5)"><tspan dy="0" x="0" y="16.863636">Account</tspan><tspan dy="0" x="0" y="48.590909">Manipulation</tspan></text></g><g transform="translate(109.6 295.363636)"><path d="m0 0h104.6v64.454545h-104.6z" fill="#ffe466" stroke="#000"/><text dx="0" dy="0" font-size="10pt" transform="translate(3 4.5)"><tspan dy="0" x="0" y="32.727273">Create Account</tspan></text></g><g transform="translate(109.6 359.818182)"><path d="m0 0h104.6v64.454545h-104.6z" fill="#ff7066" stroke="#000"/><text dx="0" dy="0" font-size="10pt" transform="translate(3 4.5)"><tspan dy="0" x="0" y="16.863636">Implant</tspan><tspan dy="0" x="0" y="48.590909">Container Image</tspan></text></g><g transform="translate(109.6 424.272727)"><path d="m0 0h104.6v64.454545h-104.6z" fill="#ffa466" stroke="#000"/><text dx="0" dy="0" font-size="10pt" transform="translate(3 4.5)"><tspan dy="0" x="0" y="16.863636">Redundant</tspan><tspan dy="0" x="0" y="48.590909">Access</tspan></text></g><g transform="translate(109.6 488.727273)"><path d="m0 0h104.6v64.454545h-104.6z" fill="#ff8a66" stroke="#000"/><text dx="0" dy="0" font-size="10pt" transform="translate(3 4.5)"><tspan dy="0" x="0" y="32.727273">Valid Accounts</tspan></text></g><g transform="translate(214.2 102)"><path d="m0 0h104.6v128.909091h-104.6z" fill="#fff" stroke="#000"/><g font-size="12pt"><text dx="0" dy="0" font-weight="bold" transform="translate(3 38.477273)"><tspan dy="0em" x="0">Privilege</tspan><tspan dy="1.1em" x="0">Escalation</tspan></text><text dx="0" dy="0" transform="translate(3 102.431818)"><tspan dy="0em" x="0">1 items</tspan></text></g></g><g transform="translate(214.2 230.909091)"><path d="m0 0h104.6v64.454545h-104.6z" fill="#ff8a66" stroke="#000"/><text dx="0" dy="0" font-size="10pt" transform="translate(3 4.5)"><tspan dy="0" x="0" y="32.727273">Valid Accounts</tspan></text></g><g transform="translate(318.8 102)"><path d="m0 0h104.6v128.909091h-104.6z" fill="#fff" stroke="#000"/><g font-size="12pt"><text dx="0" dy="0" font-weight="bold" transform="translate(3 38.477273)"><tspan dy="0em" x="0">Defense</tspan><tspan dy="1.1em" x="0">Evasion</tspan></text><text dx="0" dy="0" transform="translate(3 102.431818)"><tspan dy="0em" x="0">6 items</tspan></text></g></g><g transform="translate(318.8 230.909091)"><path d="m0 0h104.6v64.454545h-104.6z" fill="#ffe466" stroke="#000"/><text dx="0" dy="0" font-size="10pt" transform="translate(3 4.5)"><tspan dy="0" x="0" y="16.863636">Application</tspan><tspan dy="0" x="0" y="48.590909">Access Token</tspan></text></g><g transform="translate(318.8 295.363636)"><path d="m0 0h104.6v64.454545h-104.6z" fill="#ffbe66" stroke="#000"/><text dx="0" dy="0" font-size="10pt" transform="translate(3 4.5)"><tspan dy="0" x="0" y="16.863636">Redundant</tspan><tspan dy="0" x="0" y="48.590909">Access</tspan></text></g><g transform="translate(318.8 359.818182)"><path d="m0 0h104.6v64.454545h-104.6z" fill="#ffe466" stroke="#000"/><text dx="0" dy="0" font-size="10pt" transform="translate(3 4.5)"><tspan dy="0" x="0" y="16.863636">Revert Cloud</tspan><tspan dy="0" x="0" y="48.590909">Instance</tspan></text></g><g transform="translate(318.8 424.272727)"><path d="m0 0h104.6v64.454545h-104.6z" fill="#ffe466" stroke="#000"/><text dx="0" dy="0" font-size="10pt" transform="translate(3 4.5)"><tspan dy="0" x="0" y="11.575758"/><tspan dy="0" x="0" y="32.727273">Unused/Unsupported</tspan><tspan dy="0" x="0" y="53.878788">Cloud Regions</tspan></text></g><g transform="translate(318.8 488.727273)"><path d="m0 0h104.6v64.454545h-104.6z" fill="#ffb166" stroke="#000"/><text dx="0" dy="0" font-size="10pt" transform="translate(3 4.5)"><tspan dy="0" x="0" y="32.727273">Valid Accounts</tspan></text></g><g transform="translate(318.8 553.181818)"><path d="m0 0h104.6v64.454545h-104.6z" fill="#bcd551" stroke="#000"/><text dx="0" dy="0" font-size="10pt" transform="translate(3 4.5)"><tspan dy="0" x="0" y="16.863636">Web Session</tspan><tspan dy="0" x="0" y="48.590909">Cookie</tspan></text></g><g transform="translate(423.4 102)"><path d="m0 0h104.6v128.909091h-104.6z" fill="#fff" stroke="#000"/><g font-size="12pt"><text dx="0" dy="0" font-weight="bold" transform="translate(3 38.477273)"><tspan dy="0em" x="0">Credential</tspan><tspan dy="1.1em" x="0">Access</tspan></text><text dx="0" dy="0" transform="translate(3 102.431818)"><tspan dy="0em" x="0">6 items</tspan></text></g></g><g transform="translate(423.4 230.909091)"><path d="m0 0h104.6v64.454545h-104.6z" fill="#ffb166" stroke="#000"/><text dx="0" dy="0" font-size="10pt" transform="translate(3 4.5)"><tspan dy="0" x="0" y="16.863636">Account</tspan><tspan dy="0" x="0" y="48.590909">Manipulation</tspan></text></g><g transform="translate(423.4 295.363636)"><path d="m0 0h104.6v64.454545h-104.6z" fill="#ffb166" stroke="#000"/><text dx="0" dy="0" font-size="10pt" transform="translate(3 4.5)"><tspan dy="0" x="0" y="32.727273">Brute Force</tspan></text></g><g transform="translate(423.4 359.818182)"><path d="m0 0h104.6v64.454545h-104.6z" fill="#ffe466" stroke="#000"/><text dx="0" dy="0" font-size="10pt" transform="translate(3 4.5)"><tspan dy="0" x="0" y="16.863636">Cloud Instance</tspan><tspan dy="0" x="0" y="48.590909">Metadata API</tspan></text></g><g transform="translate(423.4 424.272727)"><path d="m0 0h104.6v64.454545h-104.6z" fill="#ff9766" stroke="#000"/><text dx="0" dy="0" font-size="10pt" transform="translate(3 4.5)"><tspan dy="0" x="0" y="16.863636">Credentials in</tspan><tspan dy="0" x="0" y="48.590909">Files</tspan></text></g><g transform="translate(423.4 488.727273)"><path d="m0 0h104.6v64.454545h-104.6z" fill="#ffe466" stroke="#000"/><text dx="0" dy="0" font-size="10pt" transform="translate(3 4.5)"><tspan dy="0" x="0" y="11.575758">Steal</tspan><tspan dy="0" x="0" y="32.727273">Application</tspan><tspan dy="0" x="0" y="53.878788">Access Token</tspan></text></g><g transform="translate(423.4 553.181818)"><path d="m0 0h104.6v64.454545h-104.6z" fill="#ffe466" stroke="#000"/><text dx="0" dy="0" font-size="10pt" transform="translate(3 4.5)"><tspan dy="0" x="0" y="16.863636">Steal Web</tspan><tspan dy="0" x="0" y="48.590909">Session Cookie</tspan></text></g><g transform="translate(528 102)"><path d="m0 0h104.6v128.909091h-104.6z" fill="#fff" stroke="#000"/><g font-size="12pt"><text dx="0" dy="0" font-weight="bold" transform="translate(3 38.477273)"><tspan dy="0em" x="0">Discovery</tspan></text><text dx="0" dy="0" transform="translate(3 102.431818)"><tspan dy="0em" x="0">9 items</tspan></text></g></g><g transform="translate(528 230.909091)"><path d="m0 0h104.6v64.454545h-104.6z" fill="#ff7d66" stroke="#000"/><text dx="0" dy="0" font-size="10pt" transform="translate(3 4.5)"><tspan dy="0" x="0" y="16.863636">Account</tspan><tspan dy="0" x="0" y="48.590909">Discovery</tspan></text></g><g transform="translate(528 295.363636)"><path d="m0 0h104.6v64.454545h-104.6z" fill="#ff7066" stroke="#000"/><text dx="0" dy="0" font-size="10pt" transform="translate(3 4.5)"><tspan dy="0" x="0" y="16.863636">Cloud Service</tspan><tspan dy="0" x="0" y="48.590909">Dashboard</tspan></text></g><g transform="translate(528 359.818182)"><path d="m0 0h104.6v64.454545h-104.6z" fill="#eae160" stroke="#000"/><text dx="0" dy="0" font-size="10pt" transform="translate(3 4.5)"><tspan dy="0" x="0" y="16.863636">Cloud Service</tspan><tspan dy="0" x="0" y="48.590909">Discovery</tspan></text></g><g transform="translate(528 424.272727)"><path d="m0 0h104.6v64.454545h-104.6z" fill="#ffe466" stroke="#000"/><text dx="0" dy="0" font-size="10pt" transform="translate(3 4.5)"><tspan dy="0" x="0" y="16.863636">Network Service</tspan><tspan dy="0" x="0" y="48.590909">Scanning</tspan></text></g><g transform="translate(528 488.727273)"><path d="m0 0h104.6v64.454545h-104.6z" fill="#ffa466" stroke="#000"/><text dx="0" dy="0" font-size="10pt" transform="translate(3 4.5)"><tspan dy="0" x="0" y="16.863636">Network Share</tspan><tspan dy="0" x="0" y="48.590909">Discovery</tspan></text></g><g transform="translate(528 553.181818)"><path d="m0 0h104.6v64.454545h-104.6z" fill="#ff9766" stroke="#000"/><text dx="0" dy="0" font-size="10pt" transform="translate(3 4.5)"><tspan dy="0" x="0" y="11.575758">Permission</tspan><tspan dy="0" x="0" y="32.727273">Groups</tspan><tspan dy="0" x="0" y="53.878788">Discovery</tspan></text></g><g transform="translate(528 617.636364)"><path d="m0 0h104.6v64.454545h-104.6z" fill="#ffe466" stroke="#000"/><text dx="0" dy="0" font-size="10pt" transform="translate(3 4.5)"><tspan dy="0" x="0" y="16.863636">Remote System</tspan><tspan dy="0" x="0" y="48.590909">Discovery</tspan></text></g><g transform="translate(528 682.090909)"><path d="m0 0h104.6v64.454545h-104.6z" fill="#ffe466" stroke="#000"/><text dx="0" dy="0" font-size="10pt" transform="translate(3 4.5)"><tspan dy="0" x="0" y="11.575758">System</tspan><tspan dy="0" x="0" y="32.727273">Information</tspan><tspan dy="0" x="0" y="53.878788">Discovery</tspan></text></g><g transform="translate(528 746.545455)"><path d="m0 0h104.6v64.454545h-104.6z" fill="#ff7d66" stroke="#000"/><text dx="0" dy="0" font-size="10pt" transform="translate(3 4.5)"><tspan dy="0" x="0" y="11.575758">System Network</tspan><tspan dy="0" x="0" y="32.727273">Connections</tspan><tspan dy="0" x="0" y="53.878788">Discovery</tspan></text></g><g transform="translate(632.6 102)"><path d="m0 0h104.6v128.909091h-104.6z" fill="#fff" stroke="#000"/><g font-size="12pt"><text dx="0" dy="0" font-weight="bold" transform="translate(3 38.477273)"><tspan dy="0em" x="0">Lateral</tspan><tspan dy="1.1em" x="0">Movement</tspan></text><text dx="0" dy="0" transform="translate(3 102.431818)"><tspan dy="0em" x="0">3 items</tspan></text></g></g><g transform="translate(632.6 230.909091)"><path d="m0 0h104.6v64.454545h-104.6z" fill="#bcd551" stroke="#000"/><text dx="0" dy="0" font-size="10pt" transform="translate(3 4.5)"><tspan dy="0" x="0" y="16.863636">Application</tspan><tspan dy="0" x="0" y="48.590909">Access Token</tspan></text></g><g transform="translate(632.6 295.363636)"><path d="m0 0h104.6v64.454545h-104.6z" fill="#ffe466" stroke="#000"/><text dx="0" dy="0" font-size="10pt" transform="translate(3 4.5)"><tspan dy="0" x="0" y="16.863636">Internal</tspan><tspan dy="0" x="0" y="48.590909">Spearphishing</tspan></text></g><g transform="translate(632.6 359.818182)"><path d="m0 0h104.6v64.454545h-104.6z" fill="#ffbe66" stroke="#000"/><text dx="0" dy="0" font-size="10pt" transform="translate(3 4.5)"><tspan dy="0" x="0" y="16.863636">Web Session</tspan><tspan dy="0" x="0" y="48.590909">Cookie</tspan></text></g><g transform="translate(737.2 102)"><path d="m0 0h104.6v128.909091h-104.6z" fill="#fff" stroke="#000"/><g font-size="12pt"><text dx="0" dy="0" font-weight="bold" transform="translate(3 38.477273)"><tspan dy="0em" x="0">Collection</tspan></text><text dx="0" dy="0" transform="translate(3 102.431818)"><tspan dy="0em" x="0">4 items</tspan></text></g></g><g transform="translate(737.2 230.909091)"><path d="m0 0h104.6v64.454545h-104.6z" fill="#ffe466" stroke="#000"/><text dx="0" dy="0" font-size="10pt" transform="translate(3 4.5)"><tspan dy="0" x="0" y="16.863636">Data from Cloud</tspan><tspan dy="0" x="0" y="48.590909">Storage Object</tspan></text></g><g transform="translate(737.2 295.363636)"><path d="m0 0h104.6v64.454545h-104.6z" fill="#ff7d66" stroke="#000"/><text dx="0" dy="0" font-size="10pt" transform="translate(3 4.5)"><tspan dy="0" x="0" y="11.575758">Data from</tspan><tspan dy="0" x="0" y="32.727273">Information</tspan><tspan dy="0" x="0" y="53.878788">Repositories</tspan></text></g><g transform="translate(737.2 359.818182)"><path d="m0 0h104.6v64.454545h-104.6z" fill="#ffe466" stroke="#000"/><text dx="0" dy="0" font-size="10pt" transform="translate(3 4.5)"><tspan dy="0" x="0" y="16.863636">Data from Local</tspan><tspan dy="0" x="0" y="48.590909">System</tspan></text></g><g transform="translate(737.2 424.272727)"><path d="m0 0h104.6v64.454545h-104.6z" fill="#ffe466" stroke="#000"/><text dx="0" dy="0" font-size="10pt" transform="translate(3 4.5)"><tspan dy="0" x="0" y="32.727273">Data Staged</tspan></text></g><g transform="translate(841.8 102)"><path d="m0 0h104.6v128.909091h-104.6z" fill="#fff" stroke="#000"/><g font-size="12pt"><text dx="0" dy="0" font-weight="bold" transform="translate(3 38.477273)"><tspan dy="0em" x="0">Exfiltration</tspan></text><text dx="0" dy="0" transform="translate(3 102.431818)"><tspan dy="0em" x="0">1 items</tspan></text></g></g><g transform="translate(841.8 230.909091)"><path d="m0 0h104.6v64.454545h-104.6z" fill="#ffbe66" stroke="#000"/><text dx="0" dy="0" font-size="10pt" transform="translate(3 4.5)"><tspan dy="0" x="0" y="16.863636">Transfer Data to</tspan><tspan dy="0" x="0" y="48.590909">Cloud Account</tspan></text></g><g transform="translate(946.4 102)"><path d="m0 0h104.6v128.909091h-104.6z" fill="#fff" stroke="#000"/><g font-size="12pt"><text dx="0" dy="0" font-weight="bold" transform="translate(3 38.477273)"><tspan dy="0em" x="0">Impact</tspan></text><text dx="0" dy="0" transform="translate(3 102.431818)"><tspan dy="0em" x="0">1 items</tspan></text></g></g><g transform="translate(946.4 230.909091)"><path d="m0 0h104.6v64.454545h-104.6z" fill="#ffa166" stroke="#000"/><text dx="0" dy="0" font-size="10pt" transform="translate(3 4.5)"><tspan dy="0" x="0" y="16.863636">Resource</tspan><tspan dy="0" x="0" y="48.590909">Hijacking</tspan></text></g></g></svg>